#!OML:ASF H:\Terrain\Patient Classification 1\Walking\liu\liu.ASF
:FULLY-SPECIFIED
:DEGREES
286
root 10.0084 17.0083 34.4636 7.0044 -5.34673 1.95352
lowerback -6.14444 3.33514 -3.73547
upperback 1.45955 4.70897 0.869654
thorax 4.58366 2.21832 3.45055
lowerneck -22.5385 -4.94218 -13.5376
upperneck 21.8367 -5.45001 12.1336
head 11.5925 -2.10068 5.91297
rclavicle -1.39149e-015 -1.90833e-014
rhumerus -17.1639 18.0491 -85.9124
rradius 37.0892
rwrist -17.8305
rhand -32.3483 -21.8196
rfingers 7.12502
rthumb -5.58501 -51.726
lclavicle -1.39149e-015 -1.90833e-014
lhumerus -49.9868 28.3036 54.9625
lradius 9.57893
lwrist -39.3729
lhand -13.7695 -27.8441
lfingers 7.12502
lthumb 12.3513 1.77109
rfemur -10.2598 -2.89986 16.7712
rtibia 69.0452
rfoot -4.12476 -14.6436
rtoes -10.2214
lfemur -35.1373 5.28756 -27.4462
ltibia 41.5675
lfoot -12.6639 1.167
ltoes 6.31634
287
root 10.0241 17.0513 34.6706 6.8971 -5.1769 2.28734
lowerback -6.45747 3.11497 -3.96863
upperback 1.83298 4.45655 0.828861
thorax 5.15981 2.06376 3.55461
lowerneck -22.7215 -4.87291 -13.5467
upperneck 21.6044 -5.33194 12.2343
head 11.525 -2.02869 5.96501
rclavicle 1.19271e-014 1.43125e-014
rhumerus -17.1368 18.0124 -86.0097
rradius 35.9875
rwrist -18.0957
rhand -32.7253 -21.5445
rfingers 7.12502
rthumb -5.94901 -51.441
lclavicle 1.19271e-014 1.43125e-014
lhumerus -48.8036 29.7927 55.5777
lradius 10.0112
lwrist -40.3196
lhand -13.7602 -28.3693
lfingers 7.12502
lthumb 12.3604 1.24532
rfemur -12.239 -2.75748 16.7864
rtibia 69.6919
rfoot -5.40239 -13.6602
rtoes -13.0984
lfemur -33.7952 4.96863 -27.7968
ltibia 40.8917
lfoot -13.2006 1.21323
ltoes 5.73413
288
root 10.0365 17.1038 34.8944 7.19568 -4.70398 1.49876
lowerback -6.4703 2.94297 -3.20752
upperback 1.51929 4.13864 1.21033
thorax 4.88884 1.93651 3.48427
lowerneck -22.6342 -4.89385 -14.1529
upperneck 22.059 -5.31179 12.6649
head 11.7109 -2.02703 6.26587
rclavicle 1.73937e-015 9.93923e-015
rhumerus -18.4274 17.8464 -86.1727
rradius 35.1499
rwrist -18.4363
rhand -33.0107 -20.6046
rfingers 7.12502
rthumb -6.22452 -50.4932
lclavicle 1.73937e-015 9.93923e-015
lhumerus -46.347 27.1865 60.2097
lradius 10.2316
lwrist -36.4901
lhand -14.6437 -28.6003
lfingers 7.12502
lthumb 11.5084 1.06381
rfemur -14.3237 -2.62117 18.1579
rtibia 69.9038
rfoot -6.78975 -12.862
rtoes -13.2178
lfemur -32.7667 4.47447 -26.9221
ltibia 40.0917
lfoot -13.6774 1.28396
ltoes 4.58661
289
root 10.0525 17.1296 35.1024 6.94282 -5.04027 1.76202
lowerback -6.53601 2.75151 -3.39471
upperback 1.73359 3.91236 1.04244
thorax 5.16861 1.81056 3.40561
lowerneck -22.5688 -4.4381 -13.325
upperneck 22.0884 -4.87432 12.314
head 11.6021 -1.80222 6.05799
rclavicle -6.90777e-015 7.55382e-015
rhumerus -19.0201 17.4418 -86.8036
rradius 34.309
rwrist -18.0372
rhand -32.3892 -20.9063
rfingers 7.12502
rthumb -5.62448 -50.8116
lclavicle -6.90777e-015 7.55382e-015
lhumerus -43.1056 23.2353 65.5501
lradius 10.6343
lwrist -30.6732
lhand -15.4679 -28.5697
lfingers 7.12502
lthumb 10.7134 1.13713
rfemur -16.1332 -1.73219 18.2153
rtibia 70.1506
rfoot -8.32038 -11.8039
rtoes -11.0939
lfemur -31.1021 4.43717 -27.2583
ltibia 39.1927
lfoot -14.3255 1.93792
ltoes 0.879283
290
root 10.1043 17.1691 35.3076 6.52676 -4.49782 2.36232
lowerback -5.30272 2.88091 -3.3361
upperback 1.27064 4.03328 1.01858
thorax 3.98258 1.91098 3.26216
lowerneck -22.0775 -4.8222 -14.4089
upperneck 22.8628 -5.14092 12.2377
head 11.8756 -2.05076 6.20479
rclavicle -1.72446e-014 1.74931e-014
rhumerus -20.9831 15.4383 -86.2098
rradius 33.8668
rwrist -16.6052
rhand -31.092 -23.5229
rfingers 7.12502
rthumb -4.37198 -53.4578
lclavicle -1.72446e-014 1.74931e-014
lhumerus -41.1755 18.4336 70.8538
lradius 11.4377
lwrist -25.7809
lhand -15.1332 -28.0038
lfingers 7.12502
lthumb 11.0363 1.68602
rfemur -17.2185 -2.06623 17.5387
rtibia 69.8037
rfoot -9.81764 -10.1607
rtoes -10.9766
lfemur -29.0849 3.77554 -28.15
ltibia 38.3477
lfoot -14.9723 2.39572
ltoes -2.8491
291
root 10.1071 17.229 35.5436 6.53798 -4.56523 2.83619
lowerback -3.32893 2.35074 -4.40309
upperback -0.698057 3.27434 1.02908
thorax 0.839198 1.63116 3.64841
lowerneck -20.0978 -3.86948 -13.5432
upperneck 23.8497 -4.31611 11.8251
head 11.6906 -1.71752 6.06176
rclavicle 9.49197e-015 -1.51076e-014
rhumerus -25.1604 15.5689 -87.7591
rradius 33.4244
rwrist -15.1702
rhand -30.3614 -26.0851
rfingers 7.12502
rthumb -3.66648 -56.0333
lclavicle 9.49197e-015 -1.51076e-014
lhumerus -43.1959 14.377 73.5094
lradius 13.3112
lwrist -20.1613
lhand -14.0752 -27.0593
lfingers 7.12502
lthumb 12.0566 2.57338
rfemur -19.109 -1.20059 17.5768
rtibia 69.3909
rfoot -11.2971 -9.67811
rtoes -12.2612
lfemur -27.6583 3.21048 -28.4912
ltibia 37.1868
lfoot -15.2881 2.6746
ltoes 1.42631
292
root 10.105 17.297 35.7736 6.82028 -3.88154 1.75088
lowerback -3.60476 1.83039 -3.6983
upperback -0.906103 2.5569 1.62867
thorax 0.851127 1.27739 3.85609
lowerneck -19.8829 -3.45499 -13.0682
upperneck 24.0611 -3.78068 11.3172
head 11.6219 -1.50164 5.87151
rclavicle 1.3418e-015 1.19271e-014
rhumerus -26.2818 15.9608 -87.9259
rradius 32.7437
rwrist -14.8496
rhand -30.2786 -26.8313
rfingers 7.12502
rthumb -3.58648 -56.7808
lclavicle 1.3418e-015 1.19271e-014
lhumerus -42.2199 12.3093 76.5251
lradius 14.4529
lwrist -16.7293
lhand -13.8369 -26.5477
lfingers 7.12502
lthumb 12.2863 3.0714
rfemur -20.7617 -0.754012 19.4622
rtibia 68.4532
rfoot -12.9507 -9.58606
rtoes -13.363
lfemur -26.5915 2.30797 -27.1045
ltibia 36.1263
lfoot -15.5719 2.65548
ltoes 5.88775
